<svg width="48" height="48" viewBox="0 0 48 48" fill="none" xmlns="http://www.w3.org/2000/svg">
<g id="Steam" clip-path="url(#clip0)">
<g id="Steam_2">
<path id="Vector" d="M22.7476 17.9891C22.7476 18.0295 22.7476 18.0699 22.7497 18.1078L16.873 26.639C15.9211 26.5957 14.9658 26.7626 14.06 27.1355C13.6608 27.2982 13.2866 27.4981 12.9356 27.7288L6.10352e-05 22.5C6.10352e-05 22.5 -0.244342 26.8413 1.00002 30.5L10.0997 34.7496C10.5577 36.7952 11.9619 38.5896 14.0337 39.4527C17.4232 40.868 21.3314 39.255 22.7414 35.8661C23.1084 34.9803 23.2795 34.0512 23.2547 33.1241L31.6632 27.119C31.7312 27.1211 31.8013 27.1231 31.8693 27.1231C36.9012 27.1231 40.991 23.0235 40.991 17.9891C40.991 12.9543 36.9012 8.8584 31.8693 8.8584C26.8395 8.8584 22.7476 12.9543 22.7476 17.9891ZM21.3376 35.2769C20.2463 37.8953 17.2354 39.1375 14.6183 38.0478C13.4109 37.5451 12.4994 36.6242 11.9735 35.5262L14.9429 36.7561C16.873 37.5595 19.0874 36.6448 19.8897 34.7166C20.6945 32.7863 19.7815 30.5696 17.8524 29.7662L14.7828 28.4951C15.9673 28.046 17.3138 28.0296 18.5718 28.5528C19.8402 29.0802 20.8243 30.0732 21.3459 31.3422C21.8674 32.6112 21.8653 34.012 21.3376 35.2769ZM31.8693 24.0742C28.5195 24.0742 25.7923 21.3446 25.7923 17.9891C25.7923 14.6363 28.5195 11.9059 31.8693 11.9059C35.2212 11.9059 37.9484 14.6363 37.9484 17.9891C37.9484 21.3446 35.2212 24.0742 31.8693 24.0742ZM27.3157 17.9798C27.3157 15.4556 29.3606 13.4083 31.8796 13.4083C34.4007 13.4083 36.4456 15.4556 36.4456 17.9798C36.4456 20.5043 34.4007 22.5497 31.8796 22.5497C29.3606 22.5497 27.3157 20.5043 27.3157 17.9798Z" fill="white"/>
</g>
</g>
<defs>
<clipPath id="clip0">
<rect width="48" height="48" fill="white"/>
</clipPath>
</defs>
</svg>
