<svg width="48" height="48" viewBox="0 0 48 48" fill="none" xmlns="http://www.w3.org/2000/svg">
<g id="Xbox">
<g id="Xbox_2">
<g id="Group">
<path id="Vector" d="M25.7626 22.4892C25.7626 22.4892 25.7626 22.4956 25.7626 22.4892C25.1944 22.0114 24.6198 21.5142 23.9935 21.017C23.3994 21.4948 22.8119 21.9855 22.2308 22.4827C18.1178 26.1115 12.8555 30.9218 12.9136 35.4157C15.7868 38.147 19.6932 39.8193 23.9935 39.8193C28.2873 39.8193 32.1807 38.147 35.054 35.4286C35.1121 30.9347 29.8692 26.1244 25.7626 22.4892Z" fill="white"/>
<path id="Vector_2" d="M34.9507 12.4747C32.4196 12.959 29.8821 15.193 28.4939 17.0461C28.4293 17.1494 28.3647 17.2527 28.3002 17.3625C29.4043 18.7055 31.8191 21.6434 33.7626 24.9493C35.4931 27.9 36.8425 31.1478 36.552 33.8145C38.715 31.1155 40.0064 27.7063 40.0064 24.0001C40.0064 19.4545 38.0693 15.3609 34.9636 12.4747H34.9507Z" fill="white"/>
<path id="Vector_3" d="M19.6997 17.356C19.6352 17.2526 19.5706 17.1493 19.506 17.046C18.1114 15.1994 15.5738 12.9653 13.0363 12.4811C9.93058 15.3608 7.99353 19.4544 7.99353 24C7.99353 27.6933 9.27198 31.0961 11.4221 33.7886C10.8022 28.1324 17.6013 19.8935 19.6997 17.356Z" fill="white"/>
<path id="Vector_4" d="M24.0064 13.1397C25.8983 11.9646 28.9911 10.4408 32.3616 10.5441C32.3809 10.5441 32.3938 10.5441 32.3938 10.5441H32.4197C29.9725 9.05258 27.0799 8.18091 23.9935 8.18091C20.9717 8.18091 16.891 9.98882 15.8256 10.4537C15.6771 10.5183 15.6319 10.5376 15.619 10.5441C19.0088 10.4473 22.1081 11.9711 24.0064 13.1397Z" fill="white"/>
</g>
</g>
</g>
</svg>
